    <svg
        id="e4QV9PRN1OC1"
        xmlns="http://www.w3.org/2000/svg"
        xmlns:xlink="http://www.w3.org/1999/xlink"
        viewBox="0 0 1920 1920"
        shape-rendering="geometricPrecision"
        text-rendering="geometricPrecision"
        fill="#38B2AC"
      >
        <style>
          #e4QV9PRN1OC5_to {
            animation: e4QV9PRN1OC5_to__to 2000ms linear infinite normal forwards;
          }
          @keyframes e4QV9PRN1OC5_to__to {
            0% {
              transform: translate(1089.90083px, 1234.837455px);
            }
            7.5% {
              transform: translate(1089.90083px, 1234.837455px);
              animation-timing-function: cubic-bezier(0.42, 0, 0.58, 1);
            }
            40% {
              transform: translate(1089.90083px, 1424.837455px);
            }
            80% {
              transform: translate(1089.90083px, 1234.837455px);
            }
            100% {
              transform: translate(1089.90083px, 1234.837455px);
            }
          }

        </style>
        <path
          d="M0,0C265.65,0,531.3,0,805,0c-2.299532,14.946956-2.299532,14.946956-4.207031,21.363281-.207272.720521-.414545,1.441041-.628098,2.183396-.651624,2.25753-1.314394,4.511604-1.977371,6.765823-.431039,1.491334-.86138,2.98287-1.291016,4.474609C795.621089,39.198484,794.315416,43.600416,793,48c-.209453.705742-.418905,1.411483-.634705,2.138611C789.729199,58.984397,786.766382,67.559359,783,76c-.427485.963574-.854971,1.927148-1.29541,2.919922C762.88474,120.896763,740.003528,159.751114,709,194c-.712852.804375-1.425703,1.60875-2.160156,2.4375-11.568326,12.873562-23.601046,25.957314-37.300781,36.582031-2.403939,1.875072-4.705575,3.84048-7.003174,5.843506-22.312,19.360695-48.056618,34.585399-74.098389,48.324463-.911045.482109-1.82209.964219-2.760742,1.460938-.843369.43957-1.686738.87914-2.555664,1.332031-.748382.390827-1.496763.781655-2.267823,1.184326C579,292,579,292,577,292c0,19.8,0,39.6,0,60-115.17,0-230.34,0-349,0c0-19.8,0-39.6,0-60-1.98-.66-3.96-1.32-6-2-18.115877-7.768351-35.878666-18.23423-51.558594-30.164062-2.81044-2.113451-5.711909-4.05987-8.628906-6.023438-7.287644-4.981634-14.090487-10.526439-20.859863-16.18457-1.775033-1.47986-3.563517-2.941501-5.354981-4.401367-8.977563-7.438923-17.216421-15.633569-25.472656-23.851563-.873335-.865434-.873335-.865434-1.764313-1.748352C101.099852,200.416631,94.345598,193.044711,88,185c-1.084523-1.317121-2.172694-2.631253-3.265625-3.941406-26.215617-31.705912-47.886772-67.784651-62.938721-106.117676-.867752-2.116795-1.816381-4.186716-2.772216-6.265137C16.808259,63.732608,15.161449,58.670211,13.5625,53.5c-.301479-.964863-.602959-1.929727-.913574-2.923828C11.759818,47.719305,10.879587,44.85981,10,42c-.23896-.764414-.47792-1.528828-.724121-2.316406C0,9.989844,0,9.989844,0,0Z"
          transform="translate(540.844013 1481.812102)"
        />
        <path d="M526.72412,1397.33848h831.06636c-.67229,20.66537-3.29128,40.90167-7.70127,60.57189h-816.13977c-3.69941-16.50077-6.13849-33.39989-7.22532-50.61649v-9.9554Z" stroke-width="0" />
        <g clip-path="url(#e4QV9PRN1OC6)">
          <g id="e4QV9PRN1OC5_to" transform="translate(1089.90083,1234.837455)">
            <path
              d="M1546.84409,1063.81213c-.00002,0-.00005,0-.00007,0s0-.00002,0-.00003l.00007.00003Zm-.00007,29.99997c-5.07076.63385-9.58737,1.13155-14.61768,1.18945-1.87463.02508-1.87463.02508-3.78714.05066-.6572.00668-1.3144.01336-1.99152.02025-2.09866.0214-4.19719.04839-6.29577.07667-4.47758.0593-8.95522.1114-13.43289.16296-5.15179.06006-10.30352.1233-15.4552.19188-2.02321.0257-4.04647.04696-6.06974.06801-7.5869.09803-15.14782.35747-22.72604.73401-11.3566.55253-22.70441.71356-34.07258.84041-34.00511.39493-68.00243,1.17455-102.00037,1.95776-2.07835.04787-4.1567.09568-6.23505.14347-17.1861.39529-34.3721.79459-51.55807,1.19571-15.92058.37154-31.84121.74045-47.76186,1.109-.70879.01641-1.41757.03282-2.14783.04972-8.51807.19719-17.03615.39427-25.55423.59126-4.20475.09724-8.40949.19454-12.61424.29189-35.63663.82501-71.27342,1.64159-106.91109,2.42016-2.80604.06141-5.61207.12316-8.41809.18502-26.66562.58701-53.33145,1.07357-80.00118,1.43221-8.90331.125-17.78449.36427-26.67755.81294-10.52142.53082-21.01423.59245-31.54687.53906-1.77864-.00504-3.55729-.0096-5.33594-.01367-4.26306-.01077-8.52604-.02789-12.78906-.04883.39542.72373.79084,1.44746,1.19824,2.19312c1.6023,2.9347,3.20215,5.87072,4.80176,8.80688.60328,1.10473,1.20656,2.20945,1.82813,3.34766.46922.8959.93844,1.7918,1.42188,2.71484.47953.89848.95906,1.79695,1.45313,2.72266c1.16157,2.87942,1.79743,5.38417,2.37793,8.41577.26088,1.34867.26088,1.34867.52704,2.72459.12933.68458.25866,1.36916.39191,2.07448.77834-.00753,1.55667-.01506,2.3586-.02281c22.96423-.18448,45.91363.16146,68.87187.64391.74977.01573,1.49954.03146,2.27203.04767c9.44661.19867,18.89308.40332,28.33953.60933c14.84375.32321,29.6878.63257,44.53187.94078c1.62519.03375,3.25037.06755,4.87556.10139c25.8115.53734,51.62256,1.0042,77.43804,1.30473c1.45737.01715,2.91473.03431,4.3721.05148c5.36966.06302,10.73932.12568,16.10899.18736c12.6534.14934,25.30483.37651,37.95641.63615c1.38256.02722,1.38256.02722,2.79306.05499c8.86153.17663,17.71414.41792,26.56888.81146c17.70748.78078,35.41662.94204,53.13806,1.13354c6.3464.06892,12.69277.14044,19.03906.21875c1.18198.01458,1.18198.01458,2.38784.02945c10.07145.1283,20.13194.35666,30.1981.72055c23.41054.83658,46.83784,1.09093,70.25922,1.46875c59.639.96421,59.639.96421,87.33648,1.5022c2.03967.03929,4.07936.07758,6.11907.11475c13.02857.23889,26.02458.71866,39.03524,1.44556.00629.97116.00629.97116.0127,1.96195.00833,1.27441.00833,1.27441.01682,2.57457.00548.84209.01096,1.68418.01661,2.55179.01223,1.75501.02735,3.51.04395,5.26497.00375,1.18445.00375,1.18445.00757,2.39282.00524.79076.01047,1.58152.01587,2.39624-.10098,2.5419-.33252,5.01041-.62062,7.53627-.09179.80953-.18358,1.61905-.27815,2.45311-.07087.61653-.14174,1.23307-.21476,1.86829-19.63051.09314-39.22103-.09451-58.84375-.71875-1.36717-.04218-2.73434-.08419-4.10152-.12605-52.87425-1.62405-105.7336-3.74171-158.59506-5.73202-20.70519-.77956-41.41046-1.55706-62.11592-2.32943-1.28207-.04786-2.56413-.09573-3.88505-.14504-34.66697-1.29353-69.33348-2.52093-104.01152-3.47714-10.28773-.28413-20.57405-.59365-30.85929-.95789-1.60971-.05447-1.60971-.05447-3.25193-.11004-6.49229-.23788-12.95117-.65929-19.4266-1.18121-3.42153-.26157-6.83572-.41007-10.26581-.50367-1.28554-.03674-2.57108-.07348-3.89557-.11133-.66363-.01748-1.32726-.03497-2.01099-.05298-2.13132-.05619-4.26249-.1164-6.39367-.17749-4.53101-.12915-9.06216-.25327-13.59332-.37695-5.96364-.16335-11.9272-.32904-17.89062-.5-.72124-.02062-1.44248-.04125-2.18557-.0625-8.72437-.25253-17.42275-.61425-26.1323-1.1875-11.19297-.67139-22.42037-.85525-33.62811-1.1875-5.51091-.16395-11.02168-.33264-16.53247-.50028-2.03849-.06191-4.077-.12348-6.11551-.18503-14.08955-.42668-28.17755-.89822-42.26541-1.3772-.30164.93159-.60328,1.86318-.91406,2.823-3.30412,9.66649-9.45038,18.62461-14.70899,27.35205-4.57771,7.65865-6.82353,13.75836-5.37695,22.82495c2.85611,7.52382,7.04418,14.35509,11.0625,21.30469.79036,1.37007.79036,1.37007,1.59668,2.76782c1.03081,1.77545,2.0725,3.54464,3.12695,5.30615c4.88509,8.30707,8.82157,16.52468,8.58887,26.30884-.01934,1.80018-.01934,1.80018-.03906,3.63672-.66122,7.23492-2.82425,13.34833-5.96094,19.86328-.35046.73759-.70093,1.47517-1.06201,2.23511-2.7928,5.7607-6.00479,11.11264-9.41455,16.53052-5.44982,8.74663-10.17421,16.47348-7.89844,27.04688c2.90701,7.51389,7.0389,14.34595,11.0625,21.30469.79036,1.37007.79036,1.37007,1.59668,2.76782c1.03081,1.77545,2.0725,3.54465,3.12695,5.30615c6.3044,10.7206,7.88189,17.75601,8.1626,29.67204h-19.85246c.14388-7.98129-2.90111-13.98561-7.15881-20.9257-6.39613-10.38622-13.44-21.27814-17.0625-33-3.57219-16.26485,2.0356-28.85753,10.35742-42.50757c3.21512-5.2548,6.3695-10.52947,9.24853-15.97778.36772-.70623.72463-1.39169,1.08154-2.07715c1.34561-2.47601,2.57278-4.87539,3.4375-7.5625c1.20235-9.44816-2.80766-17.32311-7.6875-25.125-6.733-10.59662-13.43194-21.62453-16.72266-33.83203-2.67069-13.77794,1.5811-25.6819,8.64063-37.47266c1.27915-2.07302,2.5498-4.1513,3.8125-6.23437.92912-1.54262.92912-1.54262,1.83984-3.05469c2.06057-3.35529,3.74638-6.58698,5.11719-10.28125-2.22774-1.11387-2.22774-1.11387-7.41043-1.1133-.75561.00532-1.489.01048-2.22238.01564-2.34818.00442-4.69628.01011-7.04443.02222-1.63541.00864-3.27083.01547-4.90625.02051-4.80555.01208-9.61101.03025-14.4165.05493-2.57425,5.74677-5.02145,11.58473-8.27344,16.98828-5.42136,8.57543-11.28001,17.4165-14.72656,27.01172-1.05883,5.64482-.73821,10.89443,1.90625,16.09766.37188.6468.73281,1.27457,1.09375,1.90234c2.6496,4.70305,5.35542,9.37209,8.21924,13.94824c5.54604,8.82391,10.34109,17.32212,13.00733,27.46191c3.13312,14.5421-2.90698,27.59898-10.38648,39.89478-5.04595,8.24175-10.52428,16.56983-13.84009,25.69507-2.12691,10.47799-2.12691,10.47799,11.4375,32.25c5.25914,8.36706,9.63411,16.26967,12.5625,25.75.2401,4.08172.47522,8.07867.70886,12.0507h-19.52646c.0017-.22555.0034-.45063.0051-.67572.11124-6.57307-1.65488-11.9281-5.10645-17.50977-.78904-1.24387-1.56774-2.49434-2.33789-3.75-.41869-.68598-.82507-1.35178-1.23145-2.01758-6.26004-10.19658-12.17793-20.11194-15.71094-31.60937-3.14158-13.68503,1.55803-25.31683,8.41309-37.02246c5.65527-9.53809,11.65582-19.14595,15.78613-29.46582c1.77019-9.68946,1.77019-9.68946-8.27734-26.57422-5.39999-9.00146-11.63933-18.0889-15.09766-28.05859-1.97117-10.61966-1.97669-21.71427,2.80029-31.45776.34415-.6917.67818-1.36306,1.01221-2.03442c3.06939-6.1737,6.39849-12.14625,9.9375-18.0625.44152-.72731.87005-1.43324,1.29858-2.13916.41645-.6898.82065-1.3593,1.22485-2.02881c1.76634-2.88593,2.80087-5.39281,4.10156-8.64453-12.58,0-24.79,0-37,0-1.72226,4.30565-3.32643,8.67565-5.42871,12.80908-.44393.74757-.87479,1.47315-1.30566,2.19873-.74714,1.27594-.74714,1.27594-1.47949,2.52661-3.95671,6.6727-7.86321,13.38942-11.48242,20.2522-.35826.6888-.70599,1.35734-1.05371,2.02588-1.31214,2.4077-2.27536,4.5875-3.25,7.1875-1.04819,9.4557-1.04819,9.4557,11,30c4.88026,8.30643,9.94159,16.61216,13.1875,25.71875c3.76918,15.22167-1.27189,27.6568-8.96484,40.55859-5.35182,8.92767-12.32089,18.67359-15.22266,28.72266-.98428,7.61858.90206,13.51306,4.91895,20.04736.78647,1.25694,1.56536,2.51863,2.33789,3.78418.62188,1.02405.62188,1.02405,1.23145,2.02783c6.90649,11.34887,15.49972,23.58456,16.92578,37.05054.07172,1.35743.14133,2.67493.21094,3.99243.04035.71611.08059,1.43224.12071,2.14837h-20.56657c.0028-.41428.00557-.82624.00835-1.2382.08549-5.68145-1.16669-9.87858-3.81641-14.89844-.99912-1.69952-1.99755-3.39948-2.9856-5.10547-1.12259-1.93972-2.25191-3.87528-3.3855-5.80859-5.03012-8.49801-10.04504-16.91978-13.19922-26.32812-3.65166-16.74417,2.02071-29.98092,10.65991-44.12524c4.33921-7.068,8.89443-14.022,11.83228-21.81226c1.82972-7.07627,1.90159-14.0361-1.83594-20.44141-1.55113-2.44105-3.05442-4.90918-4.55249-7.38306-.39254-.64937-.77354-1.27964-1.15454-1.90991-4.03995-6.64827-7.7304-13.41363-11.08594-20.43359-.84035-1.80103-.84035-1.80103-1.66406-3.56641-1.03522-2.14339-1.91761-4.16657-2.60937-6.44141-2.79823-18.32843,4.12085-31.64802,13.35938-46.99609.59666-.97592,1.17577-1.92314,1.75488-2.87036.56678-.93525,1.11689-1.84299,1.66699-2.75073c2.30418-3.75158,3.37522-6.58268,4.82813-10.94141-12.58,0-24.79,0-37,0-2.90141,7.25353-5.88713,14.45091-9.89062,21.17578l-.00001-.00001c-5.20099,8.22125-10.89218,16.57595-14.10937,25.82422-2.20453,12.35341-2.20453,12.35341,11.4375,34.25c5.19104,8.25871,9.72927,16.36388,12.5625,25.75c2.67598,13.96902-2.6311,27.28993-9.82031,38.95313-5.20701,8.29038-10.90425,16.75809-14.17969,26.04688-1.51449,8.59838.61635,14.60481,4.72656,22.18359.98144,1.68219,1.9623,3.36474,2.93457,5.05225c1.10804,1.9243,2.22111,3.84549,3.33887,5.76416c6.38528,10.83077,12.69828,20.97302,13.4873,33.85388.03619.68585.07132,1.35153.10645,2.01721.04318.72653.08628,1.45306.1293,2.17961h-19.52661c.0022-.02186.00443-.04397.00669-.06633.01594-.75969.03141-1.49703.04688-2.23437.22373-6.30908-2.97545-11.52565-6.20654-16.7334-6.8255-10.90272-14.35065-22.53776-18.16846-34.8916-3.57206-16.26427,2.03495-28.85803,10.35742-42.50732c5.36865-8.77568,11.98296-18.17264,14.4043-28.27393.42188-8.2631-4.10539-15.64434-8.32422-22.40625-6.70634-10.6424-13.38647-21.65947-16.73047-33.875.65075-24.20247.65075-24.20247,13.60547-45.25c3.84838-6.11331,6.86852-11.82741,8.8125-18.8125-12.34584-.67708-24.63408-1.15742-37-1-2.7914,8.96188-6.27373,17.28039-11.15991,25.30762l-.00001-.00001c-5.09884,8.31626-10.12818,16.64828-13.84009,25.69238-2.2512,10.07191-2.2512,10.07191,11.375,32.0625c5.58282,8.91141,9.89515,17.36202,12.77954,27.51709c2.71239,10.97331-.29639,23.08412-6.07935,32.69189-.54297.8729-.54297.8729-1.0752,1.72852-.70656,1.1568-1.39234,2.27957-2.07812,3.40234-5.4306,8.80906-11.37253,17.82972-14.92187,27.59766-2.12691,10.47799-2.12691,10.47799,11.4375,32.25c5.25914,8.36706,9.63411,16.26967,12.5625,25.75.2401,4.08172.47522,8.07867.70887,12.0507h-20.88416c-.88226-11.87533-5.06046-19.25512-11.77631-29.95329-5.27141-8.43498-9.06145-16.63356-12.04834-26.09741-.495-1.485-.495-1.485-1-3-1.69888-15.98619,6.23128-28.76627,14-42c9.58168-15.04341,9.58168-15.04341,10.51953-32.24609-2.3717-7.71706-6.74675-14.35378-10.93774-21.18286-9.18725-14.99507-16.31624-29.63007-12.08374-47.69702c3.11903-9.58937,8.96263-18.23426,14.21094-26.75952c3.60975-5.87044,6.75672-11.69036,9.29102-18.1145-1.02996.0116-2.05992.0232-3.12109.03516-10.3435.07835-20.55716-.34126-30.87891-1.03516c0-4.95,0-9.9,0-15c10.23,0,20.46,0,31,0-1.0725-2.18625-2.145-4.3725-3.25-6.625-.32903-.67627-.65807-1.35255-.99707-2.04932-.58573-1.18214-1.18974-2.35531-1.80664-3.52148-.89747-1.71112-1.72118-3.46034-2.54004-5.21045-2.72372-2.93596-3.35486-3.03584-7.17187-3.39844-1.82751-.05297-3.65611-.07543-5.48437-.07031-.93586-.02063-1.87172-.04125-2.83594-.0625-2.3043-.04703-4.60928-.05825-6.91406-.0625c0-4.95,0-9.9,0-15c3.96,0,7.92,0,12,0-.495-1.29938-.495-1.29938-1-2.625-1.64552-5.8494-2.03941-12.4075-1-18.375c2.78238-2.84347,4.60681-3.88562,8.4375-5c4.44732,0,6.19228,1.17842,9.5625,4c2.07118,3.10677,2.44538,4.7601,3,8.375.61696,3.99923,1.45292,6.75731,3,10.625c11.88.33,23.76.66,36,1-.99-3.465-.99-3.465-2-7-.5753-4.12399-.98465-8.18444,1.05078-11.9375c2.63229-3.23018,4.56483-4.90518,8.69922-5.375c4.10767.39497,6.07927,1.71826,9.25,4.3125c1.72005,2.81946,2.296,5.1658,2.5625,8.4375.28197,3.30888.77704,6.2602,1.4375,9.5625c12.21-.33,24.42-.66,37-1-.33-.99-.66-1.98-1-3-1.2706-10.00597-1.2706-10.00597,1.35156-14.12109c2.7521-2.52781,5.01934-3.72163,8.64844-4.62891c4.53721,1.1343,7.40767,2.78284,10,6.75c1.17039,4.64032,1.6799,9.23117,2,14c.88184-.04544.88184-.04544,1.78149-.0918c11.74953-.59578,23.45253-1.07315,35.21851-.9082-.05801-.96422-.11602-1.92844-.17578-2.92187-.04512-1.26328-.09024-2.52656-.13672-3.82812-.05801-1.25297-.11602-2.50594-.17578-3.79687.48828-3.45312.48828-3.45312,2.79297-5.84375c3.41422-2.03864,5.71235-2.60937,9.69531-2.60937c3.74669,1.97939,5.64677,3.47016,8,7c.41406,2.69922.41406,2.69922.625,5.6875.11215,1.4908.11215,1.4908.22656,3.01172.04898.75926.09797,1.51851.14844,2.30078.82758-.07219,1.65516-.14438,2.50781-.21875c11.50182-.89431,22.96073-.88397,34.49219-.78125-.02755-.68054-.05511-1.36109-.0835-2.06226-.02143-.89598-.04286-1.79196-.06494-2.71509-.02755-.88679-.05511-1.77359-.0835-2.68726.37935-4.14688,2.2362-5.75365,5.23193-8.5354c2.86608-1.43304,4.81301-1.30644,8-1c3.00686,1.61908,5.25811,3.05577,7.375,5.75.94832,3.41396.66081,6.71158.625,10.25c6.81374-.26199,13.62727-.52906,20.44067-.79956c2.31506-.09132,4.63016-.18151,6.94531-.27051c3.33891-.12856,6.67764-.26128,10.01636-.39478c1.02536-.03859,2.05073-.07717,3.10716-.11693c4.25155-.17332,8.45909-.37698,12.68141-.91334c6.29097-.75257,12.62579-.85011,18.9533-1.04445c2.48063-.07623,4.96108-.15681,7.44154-.23834c3.62622-.11877,7.25249-.23574,10.87882-.3513c9.87152-.31519,19.74258-.64449,29.61356-.97626c1.55413-.05215,1.55413-.05215,3.13966-.10535c28.97494-.97565,57.94271-2.13786,86.91051-3.30394c5.1434-.20689,10.28684-.41266,15.4303-.61806.98197-.03933,1.96394-.07866,2.97567-.11919c13.91425-.55546,27.82865-1.04421,41.74954-1.40013c7.0603-.19061,14.0938-.53048,21.14024-.99341c4.75844-.31128,9.50042-.52351,14.26736-.63571.71865-.01841,1.4373-.03682,2.17772-.05579c2.97476-.07615,5.94966-.14555,8.92458-.21521c2.21597-.05294,4.43183-.10966,6.6477-.1665c1.28592-.03029,2.57184-.06059,3.89673-.0918c3.73923-.12278,7.46002-.38605,11.19116-.65869c9.63675-.65782,19.28043-.91081,28.93424-1.19582c32.06284-.95826,64.11369-2.2283,96.16537-3.499c2.51563-.09959,5.03126-.19917,7.54689-.29873c20.13088-.79704,40.26157-1.59898,60.39222-2.40167c3.34606-.13342,6.69212-.26681,10.03819-.40019.66121-.02636,1.32242-.05271,2.00367-.07987c11.0444-.4402,22.08888-.87852,33.13341-1.31552c7.34191-.29063,14.68373-.58348,22.02548-.87811c4.54125-.18177,9.08257-.36156,13.62392-.54082c2.09298-.08302,4.18593-.16684,6.27885-.25156c2.86731-.11595,5.73472-.22894,8.60218-.34125.81446-.03365,1.62893-.06731,2.46807-.10198c6.43412-.24717,12.80363-.22623,19.25816-.22623c0,9.89999,0,19.79998,0,29.99997l-.00001.00001Zm-870.00001,21c1.7329,2.62411,3.38209,5.30348,5,8c1.7,4.42,3.35,8.71,5,13c18.685.505,18.685.505,37,1c0-3,0-3-12-24-11.9,0-23.45,0-35,0c0,.68,0,1.34,0,2Zm175.3125-1.72265c1.10328,1.78005,2.16797,3.58475,3.1875,5.41406.51.97617,1.005,1.92363,1.5,2.87109c1.60355,2.90164,1.60355,2.90164,3,6.4375c1.02,4.08,2.01,8.04,3,12c12.92,0,25.46,0,38,0c0-4,0-4-1.21484-6.57031-1.76002-3.21291-1.76002-3.21291-2.70361-5.87793-2.27436-6.07291-4.92552-11.69944-9.24365-16.5874-7.65769-5.30056-7.65769-5.30056-36.83789-1.96436c0,2,0,2,1.3125,4.27734l-.00001.00001Zm-58.3125.72265c.62555,1.12891,1.2327,2.22461,1.83984,3.32031.69893,1.26839,1.39816,2.53661,2.09766,3.80469c1.47123,2.59853,2.7662,5.16944,4.0625,7.875c1.02,3.4,2.01,6.7,3,10c12.58,0,24.79,0,37,0c0-9.55615-5.87905-19.43195-11.87012-26.61084-8.33522-6.3626-8.33522-6.3626-38.12988-2.38916.65996,1.33667,1.32792,2.66938,2,4Zm-47.71137-2.69968c-3.77036.16889-7.52587.41211-11.28906.69922c0,2.17227,0,2.17227,3.25,7.375c1.93915,2.98191,1.93915,2.98191,3.75,6.625c1.36,4.08,2.68,8.04,4,12c12.58,0,24.79,0,37,0c0-3,0-3-.86328-4.88965-.38648-.71752-.7616-1.41394-1.13672-2.11035-3.21244-7.05353-6.41382-14.48599-12-20-4.37626-2.00114-8.70261-1.40853-13.35156-.76953-3.13565.54111-6.17989.91446-9.35937,1.07031h-.00001Z"
              transform="translate(-1089.90083,-1230.837455)"
              fill="#38B2AC"
            />
          </g>
          <clipPath  id="e4QV9PRN1OC6"><rect width="1111.236718" height="553.515614" rx="0" ry="0" transform="translate(473.626066 904.394756)" fill="#d2dbed" stroke-width="0" /></clipPath>
        </g>
      </svg>