    <svg
        id="e23Uz1GiFWo1"
        xmlns="http://www.w3.org/2000/svg"
        xmlns:xlink="http://www.w3.org/1999/xlink"
        viewBox="0 0 1920 1920"
        shape-rendering="geometricPrecision"
        text-rendering="geometricPrecision"
        fill="#FF7629"
      >
        <style>
          #e23Uz1GiFWo2_to {
            animation: e23Uz1GiFWo2_to__to 2000ms linear infinite normal forwards;
          }
          @keyframes e23Uz1GiFWo2_to__to {
            0% {
              offset-distance: 0%;
              animation-timing-function: cubic-bezier(0.25, 0.46, 0.45, 0.94);
            }
            65% {
              offset-distance: 100%;
            }
            100% {
              offset-distance: 100%;
            }
          }
          #e23Uz1GiFWo2_tr {
            animation: e23Uz1GiFWo2_tr__tr 2000ms linear infinite normal forwards;
          }
          @keyframes e23Uz1GiFWo2_tr__tr {
            0% {
              transform: rotate(0deg);
            }
            25% {
              transform: rotate(19.531406deg);
            }
            60% {
              transform: rotate(-0.022582deg);
            }
            100% {
              transform: rotate(-0.022582deg);
            }
          }
          #e23Uz1GiFWo3_to {
            animation: e23Uz1GiFWo3_to__to 2000ms linear infinite normal forwards;
          }
          @keyframes e23Uz1GiFWo3_to__to {
            0% {
              offset-distance: 0%;
              animation-timing-function: cubic-bezier(0.47, 0, 0.745, 0.715);
            }
            65% {
              offset-distance: 100%;
            }
            100% {
              offset-distance: 100%;
            }
          }
          #e23Uz1GiFWo4_to {
            animation: e23Uz1GiFWo4_to__to 2000ms linear infinite normal forwards;
          }
          @keyframes e23Uz1GiFWo4_to__to {
            0% {
              offset-distance: 0%;
              animation-timing-function: cubic-bezier(0.47, 0, 0.745, 0.715);
            }
            65% {
              offset-distance: 100%;
            }
            100% {
              offset-distance: 100%;
            }
          }
          #e23Uz1GiFWo5_to {
            animation: e23Uz1GiFWo5_to__to 2000ms linear infinite normal forwards;
          }
          @keyframes e23Uz1GiFWo5_to__to {
            0% {
              offset-distance: 0%;
            }
            5% {
              offset-distance: 0%;
              animation-timing-function: cubic-bezier(0.47, 0, 0.745, 0.715);
            }
            70% {
              offset-distance: 100%;
            }
            100% {
              offset-distance: 100%;
            }
          }
          #e23Uz1GiFWo5_tr {
            animation: e23Uz1GiFWo5_tr__tr 2000ms linear infinite normal forwards;
          }
          @keyframes e23Uz1GiFWo5_tr__tr {
            0% {
              transform: rotate(0deg);
            }
            6% {
              transform: rotate(0deg);
              animation-timing-function: cubic-bezier(0.47, 0, 0.745, 0.715);
            }
            65% {
              transform: rotate(365.945331deg);
            }
            100% {
              transform: rotate(365.945331deg);
            }
          }
        </style>
        <g id="e23Uz1GiFWo2_to" style="offset-path: path('M1138.905732,1650.320688C470.30088,1804.382419,585.417346,1285.574167,1137.959047,1650.813597'); offset-rotate: 0deg">
          <g id="e23Uz1GiFWo2_tr" transform="rotate(0)">
            <g transform="translate(-1022.421519,-1613.132434)">
              <g id="e23Uz1GiFWo3_to" style="offset-path: path('M650.035653,1652.997635C389.207366,584.866297,856.021956,1599.09655,856.023805,1599.110341'); offset-rotate: 0deg">
                <ellipse rx="32.437158" ry="32.437158" transform="translate(0,0)" stroke-width="0" />
              </g>
              <g id="e23Uz1GiFWo4_to" style="offset-path: path('M748.035653,1652.997635C487.207366,584.866297,616.018039,1609.001965,616.019888,1609.015756'); offset-rotate: 0deg">
                <ellipse rx="32.437158" ry="32.437158" transform="scale(0.457274,0.457274) translate(0,0)" stroke-width="0" />
              </g>
              <g id="e23Uz1GiFWo5_to" style="offset-path: path('M570.035653,1568.997635C231.566885,968.244465,856.021956,1599.09655,856.023805,1599.110341'); offset-rotate: 0deg">
                <g id="e23Uz1GiFWo5_tr" transform="rotate(0)">
                  <rect width="569.915836" height="70.972366" rx="31" ry="31" transform="scale(0.659674,0.83841) translate(-284.957918,-35.486183)" stroke-width="0" />
                </g>
              </g>
              <g transform="translate(49.765842 490.569327)">
                <path
                  d="M0,0c5.152801.375964,10.308439.708849,15.463806,1.047424c9.517845.632162,19.033605,1.285759,28.54419,2.019806c1.794712.136779,3.590084.264817,5.385498.39206.974531.07549,1.949062.150981,2.953125.228759.801555.059378,1.60311.118755,2.428955.179932c3.829384.611241,6.935656,2.288427,10.176513,4.347412c1.299375.804375,1.299375.804375,2.625,1.625c7.366816,7.366815,9.566966,15.015261,9.625,25.0625.020625.87334.04125,1.74668.0625,2.646484.058701,9.825065-3.481311,17.791882-9.3125,25.666016-3.488573,3.244151-7.27501,5.953243-12.191162,6.037598-.85344-.040767-1.70688-.081533-2.586181-.123535-.991934-.043829-1.983868-.087657-3.00586-.132813-1.040918-.051562-2.081836-.103125-3.154297-.15625-4.68711-.217559-9.374623-.4247-14.0625-.625-.933321-.040615-1.866643-.081231-2.828247-.123077-19.51822-.831151-39.014636-1.080022-58.546753-1.064423-1.131996.0004-1.131996.0004-2.286861.000809-39.571643.017458-78.981052,1.396846-118.463139,4.124191-1.154405.079318-2.308811.158635-3.498199.240357-15.094733,1.053155-30.127006,2.464142-45.165131,4.140747-4.813998.536149-9.630139,1.022794-14.45343,1.467269-7.980582.736341-15.854133,1.790715-23.758728,3.110856-5.301904.874489-10.590349,1.514388-15.937012,2.040771-8.276359.833025-16.321175,2.423585-24.457031,4.125-3.688971.767006-7.374642,1.402478-11.105469,1.9375-16.328603,2.392089-32.442033,6.24524-48.5,10-1.131796.261841-2.263593.523682-3.429687.793457-15.496952,3.594806-30.75939,7.575686-45.925293,12.378906-3.418576,1.069686-6.852382,2.083502-10.28833,3.095703-7.916214,2.334758-15.7761,4.811535-23.60669,7.419434-.857387.285527-1.714775.571055-2.598144.865234-10.338423,3.476674-20.475871,7.48885-30.641846,11.435303-1.629513.632138-3.259396,1.263325-4.889648,1.893555-9.199142,3.556383-18.334627,7.125201-27.245362,11.368408-3.422325,1.080734-5.797637,1.243429-9.375.75-5.269769-3.164114-8.669259-7.953423-12-13-13.230089.853554-26.123787,4.368273-38.84375,7.949219-3.267494.875104-6.548675,1.52004-9.875,2.132812-1.494184.291127-1.494184.291127-3.018554.588135-1.974412.380002-3.954497.731852-5.939453,1.052246-2.65723.525822-4.898202,1.068391-7.323243,2.277588-1.831612,3.177245-1.831612,3.177245-2.379394,5.631836-.711987,2.716865-1.773864,5.076912-2.968262,7.618164-.43522.930381-.870439,1.860762-1.318847,2.819336-7.277361,15.277621-15.111567,29.176663-26.333497,41.930664-.706406.815977-1.412812,1.631953-2.140625,2.472656-2.246255,2.549257-4.540815,5.043709-6.859375,7.527344-.858515.935859-1.717031,1.871719-2.601562,2.835938-13.7064,14.57481-30.432325,24.64916-48.398438,33.164062-.676274.320816-1.352548.641631-2.049316.972168-10.856258,5.019925-22.303976,7.557017-33.950684,10.027832-1.098281.237188-2.196562.474375-3.328125.71875-11.669094,2.320171-23.601352,2.448419-35.45874,2.593262-1.455654.020492-2.911305.041197-4.366953.062092-3.980239.055418-7.960533.104242-11.940885.150862-2.560322.030121-5.120625.061562-7.680929.093164-45.603833.554928-91.209495.534012-136.815995.510439-8.144348-.003773-16.288683-.002403-24.433031.001802-44.991986.02249-89.984039.02201-134.973713-.485995-2.453413-.026706-4.906836-.050334-7.360288-.073083-55.35734-.528407-100.622642-11.552595-140.641341-51.571293-.562031-.527226-1.124062-1.054453-1.703125-1.597656-18.779575-17.783689-32.146408-44.148361-40.296875-68.402344-.419589-1.198828-.419589-1.198828-.847656-2.421875-.477881-1.389249-.94009-2.783985-1.386719-4.183594-.589631-1.844102-1.210203-3.678332-1.84375-5.507812-6.737988-20.192642-10.209813-40.76834-12.296875-61.886719-.085491-.857307-.170982-1.714614-.259063-2.5979-.243391-2.487425-.47552-4.975572-.701874-7.4646-.102639-1.086257-.102639-1.086257-.207352-2.194458-.541431-6.310595-.456711-12.332821-.456711-18.743042c235.62,0,471.24,0,714,0c0,27.772388,0,27.772388-1.3125,38.625-.176923,1.664824-.176923,1.664824-.357421,3.363281-.922214,8.143859-2.491649,16.027896-4.330079,24.011719.841839-.206814,1.683677-.413628,2.551026-.626709c3.150881-.772375,6.302483-1.541721,9.45459-2.309082c1.359016-.331487,2.717746-.664148,4.076172-.998047c1.962866-.482246,3.926751-.960134,5.890869-1.437256c1.178283-.288025,2.356567-.576049,3.570556-.872802c3.474643-.760009,6.930826-1.297394,10.456787-1.756104-.33-.886875-.66-1.77375-1-2.6875-1.717363-6.258835-2.702887-13.609495.074219-19.648437c23.44242-29.878752,91.746292-40.207187,126.384278-47.878418c3.107647-.689399,6.213096-1.387932,9.317947-2.089798c17.043726-3.846025,34.104826-7.233145,51.33049-10.180466c2.683519-.478051,5.349394-1.00809,8.018066-1.562256c5.138271-1.046952,10.300049-1.730321,15.5-2.390625c6.374983-.83736,12.692725-1.749419,19-3C-199.345758,-8.672267,-96.240716,-7.180694,0,0Z"
                  transform="translate(1572.05 1007.78)"
                />
                <path
                  d="M0,0C8.58,0,17.16,0,26,0c.185625,3.01125.37125,6.0225.5625,9.125C29.63557,46.257694,43.514096,84.182627,66,114c1.107949,1.531406,1.107949,1.531406,2.238281,3.09375c4.261113,5.828672,8.755018,11.301832,13.648438,16.609375C83.784964,135.766283,85.617106,137.868391,87.4375,140c6.998593,7.996094,14.594961,15.08021,22.912598,21.679688c1.910514,1.528863,3.802101,3.079601,5.692871,4.632812.7056.578386,1.411201,1.156772,2.138183,1.752686c1.388204,1.138072,2.775306,2.277491,4.161133,3.418457C126.106332,174.555596,129.907768,177.379702,134,180c-.66.33-1.32.66-2,1-2.879058-1.016677-5.637768-2.106215-8.4375-3.3125-.845303-.361743-1.690605-.723486-2.561523-1.096191C80.496611,158.933445,48.88205,131.45139,27,93c-.639375-1.102148-1.27875-2.204297-1.9375-3.339844-3.716517-6.608032-6.522586-13.209536-8.945312-20.390625C15.155261,66.454383,14.093982,63.7388,12.9375,61C10.431085,54.819523,8.719402,48.436049,7,42c-.341602-1.260703-.683203-2.521406-1.035156-3.820312C4.067245,31.007193,2.504444,23.813173,1.25,16.5c-.127698-.729287-.255396-1.458574-.386963-2.209961-.114646-.70415-.229292-1.408301-.347412-2.133789-.100225-.610371-.200449-1.220742-.303711-1.849609C-0.102457,6.884778,0,3.436273,0,0Z"
                  transform="translate(339 1074)"
                  fill="#f8f8f8"
                />
              </g>
            </g>
          </g>
        </g>
      </svg>