<svg fill="#c8c0b3ff" xmlns="http://www.w3.org/2000/svg" xmlns:xlink="http://www.w3.org/1999/xlink" viewBox="0 0 1920 1920" shape-rendering="geometricPrecision" text-rendering="geometricPrecision" project-id="5c8d8047c7b1467eb303e9f2731e6060" export-id="fb1600edbdd14c2f888694cbf4be643a" cached="false"><path d="M268.28484,272.36667l-.03596.0204c.18629.27165.36336.55325.52959.8443c3.27042,5.72654,1.27934,13.01978-4.44716,16.29053-5.72649,3.27024-13.02008,1.27914-16.29058-4.44739-.16617-.29056-.31797-.58609-.45723-.8846l-.03642.0209-35.89215-62.84612c9.14156-1.24929,17.52698-2.73988,24.97083-4.43147l31.65908,55.43345ZM63.37421,216.93321c7.44385,1.69159,15.82927,3.18218,24.97083,4.43147L52.45289,284.2108l-.03642-.0209c-.13926.29852-.29105.59405-.45723.8846-3.27049,5.72654-10.56409,7.71764-16.29058,4.44739-5.72649-3.27074-7.71758-10.56399-4.44716-16.29053.16623-.29105.3433-.57265.52959-.8443l-.03596-.0204l31.65908-55.43345ZM150,217.77584c-71.99146,0-130.35207-11.04877-130.35207-24.67812v-15.41961c0-13.62935,58.36061-24.67812,130.35207-24.67812s130.35207,11.04877,130.35207,24.67812v15.41961c0,13.62935-58.36061,24.67812-130.35207,24.67812Z" transform="matrix(5.664532 0 0 5.664532 110.3202 209.824529)"/></svg>
